# xmcd
#
# Track frame offsets:
#	150
#	29955
#	65159
#	87487
#	100458
#	142241
#	166897
#	192773
#	221251
#	253663
#
# Disc length: 3694 seconds
#
# Revision: 0
# Processed by: cddbd v1.4PL0 Copyright (c) Steve Scherf et al.
# Submitted via: EasyCDDAExtractor 5.0.4.1
#
DISCID=9c0e6c0a
DTITLE=Ozzy Osbourne - Live and Loud [CD2]
DYEAR=1993
DGENRE=Heavy Metal
TTITLE0=Shot In The Dark
TTITLE1=No More Tears
TTITLE2=Miracle Man
TTITLE3=Drum Solo
TTITLE4=War Pigs
TTITLE5=Bark At The Moon
TTITLE6=Mama, I'm Coming Home
TTITLE7=Crazy Train
TTITLE8=Black Sabbath
TTITLE9=Changes
EXTD=Ozzy: Live and Loud II\n YEAR: 1995 ID3G: 17
EXTT0=
EXTT1=
EXTT2=
EXTT3=
EXTT4=
EXTT5=
EXTT6=
EXTT7=
EXTT8=
EXTT9=
PLAYORDER=
